inDegrees=no
num_controls=7
num_derivatives=13
num_iterations=111
num_multipliers=7
num_parameters=0
num_slacks=7
num_states=26
objective=0.454532
objective_accelerations=0.043933
objective_balance=0.000809
objective_effort=0.036033
objective_height=0.367656
objective_ligament=0.006100
solver_duration=1269.038663
status=Solve_Succeeded
success=true
DataType=double
version=3
OpenSimVersion=4.5
endheader
time	/jointset/ground_pelvis/pelvis_tilt/value	/jointset/ground_pelvis/pelvis_tx/value	/jointset/ground_pelvis/pelvis_ty/value	/jointset/hip_r/hip_flexion_r/value	/jointset/hip_r/hip_adduction_r/value	/jointset/hip_r/hip_rotation_r/value	/jointset/back/lumbar_extension/value	/jointset/patellofemoral_r/patellar_flexion_r/value	/jointset/knee_r/knee_flexion_r/value	/jointset/knee_r/knee_adduction_r/value	/jointset/knee_r/knee_rotation_r/value	/jointset/ankle_r/ankle_angle_r/value	/jointset/subtalar_r/subtalar_angle_r/value	/jointset/ground_pelvis/pelvis_tilt/speed	/jointset/ground_pelvis/pelvis_tx/speed	/jointset/ground_pelvis/pelvis_ty/speed	/jointset/hip_r/hip_flexion_r/speed	/jointset/hip_r/hip_adduction_r/speed	/jointset/hip_r/hip_rotation_r/speed	/jointset/back/lumbar_extension/speed	/jointset/patellofemoral_r/patellar_flexion_r/speed	/jointset/knee_r/knee_flexion_r/speed	/jointset/knee_r/knee_adduction_r/speed	/jointset/knee_r/knee_rotation_r/speed	/jointset/ankle_r/ankle_angle_r/speed	/jointset/subtalar_r/subtalar_angle_r/speed	/forceset/tau_hip_flexion_r	/forceset/tau_hip_adduction_r	/forceset/tau_hip_rotation_r	/forceset/tau_knee_flexion_r	/forceset/tau_ankle_angle_r	/forceset/tau_subtalar_angle_r	/forceset/tau_lumbar_extension	lambda_cid13_p0	lambda_cid14_p0	lambda_cid14_p1	lambda_cid14_p2	lambda_cid14_p3	lambda_cid14_p4	lambda_cid14_p5	/jointset/ground_pelvis/pelvis_tilt/accel	/jointset/ground_pelvis/pelvis_tx/accel	/jointset/ground_pelvis/pelvis_ty/accel	/jointset/hip_r/hip_flexion_r/accel	/jointset/hip_r/hip_adduction_r/accel	/jointset/hip_r/hip_rotation_r/accel	/jointset/back/lumbar_extension/accel	/jointset/patellofemoral_r/patellar_flexion_r/accel	/jointset/knee_r/knee_flexion_r/accel	/jointset/knee_r/knee_adduction_r/accel	/jointset/knee_r/knee_rotation_r/accel	/jointset/ankle_r/ankle_angle_r/accel	/jointset/subtalar_r/subtalar_angle_r/accel	gamma_cid13_p0	gamma_cid14_p0	gamma_cid14_p1	gamma_cid14_p2	gamma_cid14_p3	gamma_cid14_p4	gamma_cid14_p5
1	-0.196696429044436	-0.001742238222371902	0.6605305004097081	1.326358994524681	-0.2544707025993336	0.09390540103844663	-0.7853980652611836	1.467418871827521	1.467418871827519	0.04783494619858695	0.1745208821489024	0.4362440536828398	0.1408034028394437	0.07330165126224376	0.00582220008105805	0.01442336196036277	-0.1029769589312859	-0.002088196134795147	-0.002509385384515105	1.312237880051088e-05	-0.01479168947134622	-0.01479168947134617	0.004264885281792767	-6.018558101850384e-05	0.01453727256132645	0.002756949377044807	-0.3065680336648554	0.009513707700268638	0.05117383172104638	-0.4707880722609812	-0.01839193065680311	-0.01156371363356808	0.3417974722027175	-0.04060790825002665	-57.71337648215086	-16.97923977705359	5.244232239993676	5.806949132401328	-760.8723929249003	77.86651854794292	1.19107101835941	0.1759385701686682	1.677968028568566	-5.086135777139362	-0.07886738270117968	-1.506246073648001	-0.01110634902303242	-4.832113609119692	-4.832113609119745	0.1034298137593913	0.001641384645265334	-1.170435526686372	-0.6444142021947624	-2.104717381822047e-11	-3.137184972577958e-09	-8.621298611508343e-09	3.025505151859381e-09	6.329468312056324e-09	-6.075014758287718e-09	-1.983939593939146e-08
1.01	-0.195904197337833	-0.001674924860846758	0.6607584910540442	1.325075193297603	-0.2544954595344625	0.0938049817693434	-0.7853961016335156	1.467029905132622	1.467029905132621	0.04788244956740479	0.1745201538252348	0.4363316082993571	0.1407991939626517	0.08517939930265835	0.007673091613704905	0.03117426332226873	-0.1538506621714046	-0.002868215867242486	-0.01756878951883955	0.0005397243329965556	-0.06296991330968815	-0.06296991330968965	0.005236599674584742	-8.086708584267328e-05	0.003041552957848861	-0.003577127022811241	-0.307776445226118	0.009595225651703596	0.05116011669119833	-0.4703319362661162	-0.01898299916003332	-0.01147945096999676	0.343250187955569	-0.04058796849039345	-57.92305774741937	-16.9665704018098	5.227605597896319	5.510542728232187	-761.5536499318808	77.85148186376797	1.191333179944498	0.1945592707080714	1.673573794620778	-5.098094150056311	-0.07832178695559797	-1.504937055568499	0.1085616443856975	-4.805916146613024	-4.80591614661322	0.09416487006081369	-0.003232630703440874	-1.128955303722879	-0.6246662911872862	-9.643169597202324e-10	-4.995587061219169e-09	-9.577172233299634e-09	-1.616496926200007e-09	9.554596620991404e-09	-9.256321949434273e-09	-2.878092097715459e-08
1.02	-0.1949921468542134	-0.001588123618816072	0.6611539752329232	1.323280633727604	-0.2545281671706035	0.09355413856444787	-0.7853840683509569	1.466160108324255	1.466160108324255	0.04793969460375506	0.1745193567439873	0.4363062426945305	0.1407322919353999	0.09726540666555365	0.009719776182166694	0.04792206886894287	-0.2051286275158515	-0.003678336337253318	-0.03259417254297577	0.002027053356974047	-0.1109577121648934	-0.1109577121648962	0.006213218788248339	-7.393709696413584e-05	-0.008046771707450577	-0.00978168071491772	-0.3089848567873805	0.009676743603138568	0.05114640166135014	-0.4698758002712513	-0.01957406766326359	-0.01139518830642546	0.3447029037084204	-0.04057365256188315	-58.1406801605098	-16.95318756075774	5.208462286830295	5.218510202521551	-762.3777041238121	77.8343033106829	1.232722882855563	0.2150971773316552	1.677348865522205	-5.16698819800502	-0.08488753021387835	-1.499441851610355	0.1810390649332567	-4.794028612492356	-4.794028612492355	0.1044107579340245	0.007163683384808392	-1.088956539055214	-0.6185096606448481	-1.283053178692275e-09	-3.477141813496985e-09	-2.972242936991638e-09	-7.909891271359451e-09	5.43002816281476e-09	-1.166177406326737e-08	-2.010777325668033e-08
1.03	-0.1939592128971182	-0.001480171123388768	0.6617167776068061	1.320972803085955	-0.2545690085985928	0.09315325607395178	-0.7853522018738359	1.464811072494014	1.464811072494014	0.04800673287766858	0.1745186693841431	0.4361711758643131	0.1406038426614706	0.1092540909248348	0.01187407475259904	0.06462339499910555	-0.2563516837847868	-0.004483787211503354	-0.04757171702925525	0.004522856219556355	-0.1588486250869165	-0.1588486250869198	0.007196824111511876	-6.739466140335216e-05	-0.01898393953501328	-0.0159026245284867	-0.3094048796533048	0.009855499461551493	0.05110521639468297	-0.4690202027089297	-0.02071485993019404	-0.01126926114854065	0.3453312297128557	-0.04059892328771268	-58.50859235366772	-16.93788388835234	5.177429472551163	5.474544355178132	-762.5700318493001	77.77558418251465	1.171846945797513	0.2160991949362155	1.664270024091648	-5.087092239607022	-0.07745101649843759	-1.495322450894699	0.3103430197720664	-4.78649799162362	-4.786497991623706	0.09569594076386298	-0.003182505268309897	-1.098698839492337	-0.6080553920400852	-1.595416606165028e-09	-1.924238939893525e-09	3.709837409501085e-09	-1.422013655801993e-08	1.230462798851217e-09	-1.405930928855644e-08	-1.125488397744843e-08
1.04	-0.1928084109477634	-0.001350575042649702	0.6624461423494563	1.318155316301963	-0.2546177199654182	0.09260291579784136	-0.7852900789435189	1.46298315246264	1.462983152462639	0.04808367930906305	0.1745179310428726	0.435926216968843	0.1404143502193402	0.1208390051174405	0.01404849324451904	0.08123454262240196	-0.3070598559844924	-0.00525232410446825	-0.06248572966584336	0.008078343996192713	-0.2067345523915938	-0.2067345523915972	0.008194850284429178	-8.413338224349828e-05	-0.03002518475799768	-0.02199031435514221	-0.309824902519229	0.01003425531996448	0.05106403112801567	-0.4681646051466001	-0.02185565219712452	-0.01114333399065573	0.345959555717272	-0.04062961624542451	-58.88448809518887	-16.92201169125849	5.144060171584435	5.732340578452398	-762.906737567992	77.71458886446169	1.151968869520453	0.2191211616291881	1.659313164148955	-5.064011384159145	-0.07750473395685015	-1.48673548167208	0.3929760477440682	-4.793031489023253	-4.79303148902309	0.1072949278647773	0.002507452104622304	-1.109772018139564	-0.6118588632621569	-2.522814811459049e-09	-2.717247253691456e-09	4.579811893141074e-09	-1.979196049291841e-08	2.144618508978552e-09	-1.620628964324879e-08	-1.585656159321146e-08
